HIERARCHY
ROOT Hip
{
	OFFSET 0 1.131 0.0052
	CHANNELS 6 Xposition Yposition Zposition Xrotation Yrotation Zrotation
	JOINT Abdomen
	{
		OFFSET 0 -0.047353 -0.05
		CHANNELS 3 Xrotation Zrotation Yrotation
		JOINT Chest
		{
			OFFSET 0 0.132153 0.007439
			CHANNELS 3 Xrotation Zrotation Yrotation
			JOINT Neck
			{
				OFFSET 0 0.3078 0.006161
				CHANNELS 3 Xrotation Zrotation Yrotation
				JOINT Head_comp
				{
					OFFSET 0 0.0884 0.013
					CHANNELS 3 Xrotation Yrotation Zrotation
					End Site
					{
						OFFSET -0 0.156 0.0624
					}
				}
			}
			JOINT Left_Collar
			{
				OFFSET 0.02282 0.250342 0.017193
				CHANNELS 2 Yrotation Zrotation
				JOINT Left_Shoulder
				{
					OFFSET 0.15421 0 0
					CHANNELS 3 Xrotation Yrotation Zrotation
					JOINT Left_Forearm
					{
						OFFSET 0.265212 0 0
						CHANNELS 2 Yrotation Xrotation
						JOINT Left_Hand
						{
							OFFSET 0.27571 0 0
							CHANNELS 2 Zrotation Yrotation
							JOINT L1ProxPhalanx
							{
								OFFSET 0.014142 0.001733 0.014142
								CHANNELS 3 Yrotation Zrotation Xrotation
								JOINT L1MidPhalanx
								{
									OFFSET 0.04 0 0
									CHANNELS 1 Zrotation
									JOINT L1DistPhalanx
									{
										OFFSET 0.035 0 0
										CHANNELS 1 Zrotation
										End Site
										{
											OFFSET 0.029 -0 -0
										}
									}
								}
							}
							JOINT L2ProxPhalanx
							{
								OFFSET 0.0821037 0.001578 0.0219996
								CHANNELS 2 Yrotation Zrotation
								JOINT L2MidPhalanx
								{
									OFFSET 0.04 0 0
									CHANNELS 1 Zrotation
									JOINT L2DistPhalanx
									{
										OFFSET 0.028 0 0
										CHANNELS 1 Zrotation
										End Site
										{
											OFFSET 0.02 -0 -0
										}
									}
								}
							}
							JOINT L3ProxPhalanx
							{
								OFFSET 0.083 0 0
								CHANNELS 2 Yrotation Zrotation
								JOINT L3MidPhalanx
								{
									OFFSET 0.053 0 0
									CHANNELS 1 Zrotation
									JOINT L3DistPhalanx
									{
										OFFSET 0.03 0 0
										CHANNELS 1 Zrotation
										End Site
										{
											OFFSET 0.023 -0 -0
										}
									}
								}
							}
							JOINT L4ProxPhalanx
							{
								OFFSET 0.077274 -0.000761 -0.0207055
								CHANNELS 2 Yrotation Zrotation
								JOINT L4MidPhalanx
								{
									OFFSET 0.05 0 0
									CHANNELS 1 Zrotation
									JOINT L4DistPhalanx
									{
										OFFSET 0.03 0 0
										CHANNELS 1 Zrotation
										End Site
										{
											OFFSET 0.023 -0 -0
										}
									}
								}
							}
							JOINT L5ProxPhalanx
							{
								OFFSET 0.0675499 -0.001644 -0.039
								CHANNELS 2 Yrotation Zrotation
								JOINT L5MidPhalanx
								{
									OFFSET 0.04 0 0
									CHANNELS 1 Zrotation
									JOINT L5DistPhalanx
									{
										OFFSET 0.021 0 0
										CHANNELS 1 Zrotation
										End Site
										{
											OFFSET 0.022 -0 -0
										}
									}
								}
							}
						}
					}
				}
			}
			JOINT Right_Collar
			{
				OFFSET -0.02282 0.250342 0.017193
				CHANNELS 2 Yrotation Zrotation
				JOINT Right_Shoulder
				{
					OFFSET -0.15421 0 0
					CHANNELS 3 Xrotation Yrotation Zrotation
					JOINT Right_Forearm
					{
						OFFSET -0.265212 0 0
						CHANNELS 2 Yrotation Xrotation
						JOINT Right_Hand
						{
							OFFSET -0.27571 3e-006 0
							CHANNELS 2 Zrotation Yrotation
							JOINT R1ProxPhalanx
							{
								OFFSET -0.014142 0.001733 0.014142
								CHANNELS 3 Yrotation Zrotation Xrotation
								JOINT R1MidPhalanx
								{
									OFFSET -0.04 0 0
									CHANNELS 1 Zrotation
									JOINT R1DistPhalanx
									{
										OFFSET -0.035 0 0
										CHANNELS 1 Zrotation
										End Site
										{
											OFFSET -0.029 -0 -0
										}
									}
								}
							}
							JOINT R2ProxPhalanx
							{
								OFFSET -0.0821037 0.001578 0.0219996
								CHANNELS 2 Yrotation Zrotation
								JOINT R2MidPhalanx
								{
									OFFSET -0.04 0 0
									CHANNELS 1 Zrotation
									JOINT R2DistPhalanx
									{
										OFFSET -0.028 0 0
										CHANNELS 1 Zrotation
										End Site
										{
											OFFSET -0.02 -0 -0
										}
									}
								}
							}
							JOINT R3ProxPhalanx
							{
								OFFSET -0.083 0 0
								CHANNELS 2 Yrotation Zrotation
								JOINT R3MidPhalanx
								{
									OFFSET -0.053 0 0
									CHANNELS 1 Zrotation
									JOINT R3DistPhalanx
									{
										OFFSET -0.03 0 0
										CHANNELS 1 Zrotation
										End Site
										{
											OFFSET -0.023 -0 -0
										}
									}
								}
							}
							JOINT R4ProxPhalanx
							{
								OFFSET -0.077274 -0.000761 -0.0207055
								CHANNELS 2 Yrotation Zrotation
								JOINT R4MidPhalanx
								{
									OFFSET -0.05 0 0
									CHANNELS 1 Zrotation
									JOINT R4DistPhalanx
									{
										OFFSET -0.03 0 0
										CHANNELS 1 Zrotation
										End Site
										{
											OFFSET -0.023 -0 -0
										}
									}
								}
							}
							JOINT R5ProxPhalanx
							{
								OFFSET -0.0675499 -0.001644 -0.039
								CHANNELS 2 Yrotation Zrotation
								JOINT R5MidPhalanx
								{
									OFFSET -0.04 0 0
									CHANNELS 1 Zrotation
									JOINT R5DistPhalanx
									{
										OFFSET -0.021 0 0
										CHANNELS 1 Zrotation
										End Site
										{
											OFFSET -0.022 -0 -0
										}
									}
								}
							}
						}
					}
				}
			}
		}
	}
	JOINT Left_Thigh
	{
		OFFSET 0.1118 -0.1612 -0.0442
		CHANNELS 3 Xrotation Zrotation Yrotation
		JOINT Left_Shin
		{
			OFFSET 0 -0.477856 0
			CHANNELS 1 Xrotation
			JOINT Left_Foot
			{
				OFFSET 0 -0.431952 0
				CHANNELS 2 Xrotation Zrotation
				JOINT Left_Toe
				{
					OFFSET 0 -0.0442 0.119
					CHANNELS 1 Xrotation
					End Site
					{
						OFFSET -0 -0 0.07
					}
				}
			}
		}
	}
	JOINT Right_Thigh
	{
		OFFSET -0.1118 -0.1612 -0.0442
		CHANNELS 3 Xrotation Zrotation Yrotation
		JOINT Right_Shin
		{
			OFFSET 0 -0.477856 0
			CHANNELS 1 Xrotation
			JOINT Right_Foot
			{
				OFFSET 0 -0.431952 0
				CHANNELS 2 Xrotation Zrotation
				JOINT Right_Toe
				{
					OFFSET 0 -0.0442 0.119
					CHANNELS 1 Xrotation
					End Site
					{
						OFFSET -0 -0 0.07
					}
				}
			}
		}
	}
}
MOTION
Frames: 5
Frame Time: 0.009975
-0.106294 -0.060045 0.0471335 7.40323e-013 4.56782e-008 -5.10921e-006 0 0 0 0 0 0 0 0 0 0 0 0 0 0 -0 0 -0 0 0 0 0 -37.9546 -59.6172 113.134 -6.70756 -6.90105 8.02897 0.0982623 -15.0409 -19.3986 5.4926 1.69229 -5.20773 -5.75983 1.24779 2.85104 -8.80665 0.784666 3.14926 5.83437 -63.8085 46.1417 0 0 -0 0 -0 0 0 0 0 37.9386 28.008 73.698 26.2405 28.4472 13.118 18.2167 29.0248 19.6359 0 22.4358 32.6146 28.1246 -8.63175 30.7051 32.2053 23.7634 -7.83088 26.7354 35.1526 30.0193 0.500827 -0.34674 -0.00303098 0.0240216 -0.524839 0.346758 0 0.512232 -0.346739 -0.0031 1.70755e-006 -0.512224 0.346758 0 
-0.106294 -0.060045 0.0471335 7.40323e-013 4.56782e-008 -5.10921e-006 0 0 0 0 0 0 0 0 0 0 0 0 0 0 -0 0 -0 0 0 0 0 -37.9546 -59.6172 113.134 -6.70756 -6.90105 8.02897 0.0982623 -15.0409 -19.3986 5.4926 1.69229 -5.20773 -5.75983 1.24779 2.85104 -8.80665 0.784666 3.14926 5.83437 -63.8085 46.1417 0 0 -0 0 -0 0 0 0 0 37.9386 28.008 73.698 26.2405 28.4472 13.118 18.2167 29.0248 19.6359 0 22.4358 32.6146 28.1246 -8.63175 30.7051 32.2053 23.7634 -7.83088 26.7354 35.1526 30.0193 0.500827 -0.34674 -0.00303098 0.0240216 -0.524839 0.346758 0 0.512232 -0.346739 -0.0031 1.70755e-006 -0.512224 0.346758 0 
-0.101406 -0.0600632 0.0344414 1.26513e-013 -2.56039e-008 -5.08405e-006 0 -0 0 0 -0 0 0 -0 0 -0.709975 0.291013 -9.06057e-006 -8.88656 -17.5614 -30.3354 -18.3016 -31.866 -31.8216 -0.267465 36.5945 2.15253 -38.1723 -59.4699 112.845 -6.84902 -6.96654 7.98486 -0.0532432 -15.1657 -19.3766 5.46593 1.52398 -5.38169 -5.82103 1.24901 2.67678 -8.96261 0.690742 3.1632 5.68523 -63.6594 45.811 8.88656 17.5614 -30.3354 18.3016 31.866 31.8216 -0.267465 -36.5945 -2.15253 38.1723 59.4699 112.845 6.84902 6.96654 -7.98486 0.0532432 15.1657 19.3766 -5.46593 -1.52398 5.38169 5.82103 -1.24901 -2.67678 8.96261 -0.690742 -3.1632 -5.68523 63.6594 -45.811 -0.298452 -0.654597 0.00341832 0.0239015 0.274531 0.654611 0 -0.287103 -0.654597 0.00328834 1.69901e-006 0.287083 0.654611 0 
-0.10135 -0.0600679 0.0336318 1.27143e-013 -2.57325e-008 -5.1096e-006 0 -0 0 0 -0 0 0 -0 0 -0.711635 0.290687 -2.25059e-010 -8.93087 -17.6495 -30.3729 -18.6978 -30.9584 -32.1873 -0.268775 36.7784 2.16297 -37.9546 -59.6172 113.134 -6.70756 -6.90105 8.02897 0.0982623 -15.0409 -19.3986 5.4926 1.69229 -5.20773 -5.75983 1.24779 2.85104 -8.80665 0.784666 3.14926 5.83437 -63.8085 46.1417 8.93087 17.6495 -30.3729 18.6978 30.9584 32.1873 -0.268775 -36.7784 -2.16297 37.9546 59.6172 113.134 6.70756 6.90105 -8.02897 -0.0982623 15.0409 19.3986 -5.4926 -1.69229 5.20773 5.75983 -1.24779 -2.85104 8.80665 -0.784666 -3.14926 -5.83437 63.8085 -46.1417 -0.349494 -0.658112 0.00401436 0.0240216 0.325449 0.65813 0 -0.338088 -0.658113 0.00388335 1.28066e-008 0.338066 0.65813 0 
-0.10135 -0.060068 0.0336153 -4.65533e-013 -3.0184e-008 -5.10957e-006 0 -0 0 0 -0 0 0 -0 0 -0.711611 0.290666 -6.29558e-015 -8.93087 -17.6495 -30.3724 -18.6996 -30.9536 -32.1889 -0.268775 36.7784 2.16297 -37.9546 -59.6172 113.134 -6.70756 -6.90105 8.02897 0.0982623 -15.0409 -19.3986 5.4926 1.69229 -5.20773 -5.75983 1.24779 2.85104 -8.80665 0.784666 3.14926 5.83437 -63.8085 46.1417 8.93087 17.6495 -30.3724 18.6996 30.9536 32.1889 -0.268775 -36.7784 -2.16297 37.9546 59.6172 113.134 6.70756 6.90105 -8.02897 -0.0982623 15.0409 19.3986 -5.4926 -1.69229 5.20773 5.75983 -1.24779 -2.85104 8.80665 -0.784666 -3.14926 -5.83437 63.8085 -46.1417 -0.350537 -0.658117 0.00402637 0.0240216 0.326493 0.658134 0 -0.339133 -0.658117 0.00389538 2.80333e-006 0.339108 0.658134 0 
